<?xml version="1.0" encoding="UTF-8"?>
<svg viewBox="0 0 1458 253" xmlns="http://www.w3.org/2000/svg">
<path fill="#030712" fill-rule="evenodd" stroke="#ec4899" stroke-width="6px" d="m1440.4 45.356c-3.919 3.689-9.031 5.533-15.331 5.533-6.304 0-11.412-1.844-15.331-5.533s-5.879-8.375-5.879-14.063c0-5.839 1.996-10.605 5.994-14.294 3.995-3.689 9.067-5.533 15.216-5.533 6.146 0 11.218 1.844 15.216 5.533 3.995 3.689 5.994 8.455 5.994 14.294 0 5.688-1.959 10.374-5.879 14.063zm-92.102 117.12c-9.683 10.605-22.287 15.907-37.81 15.907-10.605 0-20.021-2.496-28.241-7.492-8.224-4.993-14.64-11.989-19.251-20.98s-6.916-19.25-6.916-30.777c0-11.528 2.305-21.787 6.916-30.778s11.027-15.983 19.251-20.98c8.22-4.993 17.636-7.492 28.241-7.492 7.684 0 14.755 1.347 21.21 4.034 6.456 2.691 11.989 6.571 16.6 11.643l2.305-13.372h31.354v113.89h-31.354l-2.305-13.602zm-9.683-64.207c-5.072-5.302-11.607-7.954-19.596-7.954-7.994 0-14.489 2.691-19.482 8.069-4.996 5.382-7.492 12.299-7.492 20.75 0 8.454 2.496 15.37 7.492 20.749 4.993 5.381 11.488 8.069 19.482 8.069 7.989 0 14.524-2.652 19.596-7.954 5.072-5.303 7.608-12.255 7.608-20.864 0-8.606-2.536-15.562-7.608-20.865zm-114.58 80.114c-6.149 0-11.181-1.844-15.101-5.533-3.919-3.688-5.878-8.375-5.878-14.063 0-5.684 1.959-10.374 5.878-14.063 3.92-3.689 8.952-5.533 15.101-5.533 5.994 0 10.951 1.844 14.87 5.533s5.879 8.379 5.879 14.063c0 5.688-1.96 10.375-5.879 14.063-3.919 3.689-8.876 5.533-14.87 5.533zm-78.385-163.69h36.195v161.38h-36.195v-161.38zm-58.558 147.78c-9.683 10.605-22.288 15.907-37.81 15.907-10.605 0-20.021-2.496-28.242-7.492-8.223-4.993-14.639-11.989-19.25-20.98s-6.916-19.25-6.916-30.777c0-11.528 2.305-21.787 6.916-30.778s11.027-15.983 19.25-20.98c8.221-4.993 17.637-7.492 28.242-7.492 7.684 0 14.755 1.347 21.21 4.034 6.456 2.691 11.989 6.571 16.6 11.643l2.305-13.372h31.354v113.89h-31.354l-2.305-13.602zm-9.683-64.207c-5.072-5.302-11.607-7.954-19.597-7.954-7.993 0-14.488 2.691-19.481 8.069-4.996 5.382-7.492 12.299-7.492 20.75 0 8.454 2.496 15.37 7.492 20.749 4.993 5.381 11.488 8.069 19.481 8.069 7.99 0 14.525-2.652 19.597-7.954 5.072-5.303 7.608-12.255 7.608-20.864 0-8.606-2.536-15.562-7.608-20.865zm-120.34 46.109c2.306 2.23 5.454 3.343 9.453 3.343 4.456 0 8.836-1.073 13.141-3.228l8.53 27.205c-8.916 4.456-18.984 6.685-30.202 6.685-12.449 0-22.287-3.494-29.509-10.489-7.226-6.992-10.836-18.249-10.836-33.775v-43.112h-19.366v-28.818h19.366v-28.357l35.965-3.919v32.276h28.357v28.818h-28.357v43.112c0 4.611 1.153 8.033 3.458 10.259zm-93.37-93.486c-6.304 0-11.412-1.844-15.331-5.533-3.92-3.689-5.879-8.375-5.879-14.063 0-5.839 1.995-10.605 5.994-14.294 3.995-3.689 9.067-5.533 15.216-5.533 6.145 0 11.217 1.844 15.216 5.533 3.995 3.689 5.994 8.455 5.994 14.294 0 5.688-1.96 10.374-5.879 14.063s-9.031 5.533-15.331 5.533zm-39.423 65.475c0 8.454-2.039 16.253-6.11 23.4-4.074 7.147-9.798 13.026-17.175 17.637 7.683 3.537 13.638 8.415 17.867 14.64 4.225 6.224 6.34 13.407 6.34 21.555 0 9.528-2.615 17.943-7.839 25.245-5.227 7.298-12.604 12.911-22.132 16.83-9.532 3.919-20.598 5.879-33.198 5.879-12.299 0-23.055-2-32.277-5.994-9.221-3.999-16.332-9.683-21.325-17.061-4.996-7.377-7.493-15.907-7.493-25.59 0-2.461 0.076-4.305 0.231-5.533h34.812c-0.31 7.528 1.805 13.371 6.34 17.521 4.532 4.15 11.102 6.225 19.712 6.225 7.683 0 13.908-1.729 18.674-5.187 4.762-3.459 7.147-8.033 7.147-13.718 0-5.843-2.191-10.338-6.571-13.487-4.38-3.148-10.645-4.726-18.789-4.726-12.605 0-23.631-2.381-33.084-7.147-9.452-4.762-16.754-11.487-21.901-20.172-5.152-8.682-7.724-18.79-7.724-30.317 0-11.066 2.652-20.94 7.954-29.625 5.303-8.681 12.68-15.447 22.133-20.288 9.452-4.841 20.248-7.262 32.391-7.262 9.373 0 17.983 1.844 25.821 5.533l13.372-16.599 26.512 19.135-15.216 17.752c7.684 8.761 11.528 19.214 11.528 31.354zm-42.536-19.481c-4.841-4.842-11.336-7.262-19.481-7.262-7.993 0-14.449 2.42-19.366 7.262-4.92 4.841-7.377 11.336-7.377 19.481 0 7.993 2.457 14.488 7.377 19.481 4.917 4.996 11.373 7.493 19.366 7.493 7.99 0 14.445-2.457 19.366-7.378 4.917-4.917 7.377-11.448 7.377-19.596 0-8.145-2.42-14.64-7.262-19.481zm-118.38-45.994c-6.304 0-11.412-1.844-15.331-5.533s-5.879-8.375-5.879-14.063c0-5.839 1.996-10.605 5.994-14.294 3.995-3.689 9.067-5.533 15.216-5.533 6.146 0 11.218 1.844 15.216 5.533 3.995 3.689 5.995 8.455 5.995 14.294 0 5.688-1.96 10.374-5.879 14.063-3.92 3.689-9.031 5.533-15.332 5.533zm-77.002 111.58c-9.682 10.605-22.287 15.907-37.809 15.907-10.605 0-20.021-2.496-28.242-7.492-8.224-4.993-14.639-11.989-19.25-20.98s-6.916-19.25-6.916-30.777c0-11.528 2.305-21.787 6.916-30.778s11.026-15.983 19.25-20.98c8.221-4.993 17.637-7.492 28.242-7.492 13.984 0 25.742 4.38 35.273 13.141v-58.328h36.196v161.38h-31.354l-2.306-13.602zm-9.682-64.207c-5.072-5.302-11.607-7.954-19.597-7.954-7.993 0-14.488 2.691-19.481 8.069-4.996 5.382-7.492 12.299-7.492 20.75 0 8.454 2.496 15.37 7.492 20.749 4.993 5.381 11.488 8.069 19.481 8.069 7.99 0 14.525-2.652 19.597-7.954 5.072-5.303 7.608-12.255 7.608-20.864 0-8.606-2.536-15.562-7.608-20.865zm-120.34 46.109c2.306 2.23 5.454 3.343 9.453 3.343 4.456 0 8.836-1.073 13.141-3.228l8.53 27.205c-8.916 4.456-18.984 6.685-30.202 6.685-12.449 0-22.287-3.494-29.509-10.489-7.226-6.992-10.836-18.249-10.836-33.775v-43.112h-19.366v-28.818h19.366v-28.357l35.965-3.919v32.276h28.357v28.818h-28.357v43.112c0 4.611 1.153 8.033 3.458 10.259zm-117.58-39.769c16.289 1.232 28.702 4.921 37.232 11.066 8.531 6.149 12.796 14.755 12.796 25.821 0 11.682-4.69 20.865-14.064 27.55-9.376 6.686-22.362 10.029-38.962 10.029-20.136 0-37.658-5.072-52.564-15.216l13.833-24.899c5.533 3.383 11.949 5.995 19.25 7.839 7.299 1.844 14.561 2.766 21.787 2.766 9.989 0 14.985-2.687 14.985-8.069 0-2.766-1.383-4.841-4.15-6.224-2.766-1.384-7.377-2.306-13.832-2.767-14.449-0.767-25.936-4.38-34.467-10.836-8.53-6.455-12.795-14.906-12.795-25.359 0-11.373 4.611-20.404 13.833-27.089 9.222-6.686 21.671-10.029 37.348-10.029 8.912 0 17.406 1.077 25.475 3.228 8.069 2.154 15.022 5.151 20.865 8.991l-14.064 24.207c-8.609-4.917-18.829-7.377-30.662-7.377-11.682 0-17.522 2.766-17.522 8.299 0 2.306 1.189 4.074 3.574 5.303 2.381 1.232 6.416 2.154 12.104 2.766zm-94.063 66.512c-9.531 4.993-20.597 7.493-33.198 7.493-12.604 0-23.631-2.5-33.083-7.493-9.453-4.992-16.715-11.948-21.787-20.864-5.072-8.912-7.608-19.286-7.608-31.123 0-11.834 2.536-22.208 7.608-31.124 5.072-8.912 12.334-15.868 21.787-20.864 9.452-4.993 20.479-7.493 33.083-7.493 12.601 0 23.667 2.5 33.198 7.493 9.528 4.996 16.83 11.952 21.902 20.864 5.072 8.916 7.608 19.29 7.608 31.124 0 11.837-2.536 22.211-7.608 31.123-5.072 8.916-12.374 15.872-21.902 20.864zm-13.832-72.737c-4.921-5.378-11.376-8.069-19.366-8.069-7.839 0-14.218 2.691-19.135 8.069-4.921 5.382-7.378 12.299-7.378 20.75 0 8.454 2.457 15.37 7.378 20.749 4.917 5.381 11.296 8.069 19.135 8.069 7.99 0 14.445-2.688 19.366-8.069 4.917-5.379 7.377-12.295 7.377-20.749 0-8.451-2.46-15.368-7.377-20.75zm-119.88 72.507c-8.299 4.996-17.752 7.492-28.357 7.492-14.142 0-25.9-4.456-35.273-13.371v60.403h-36.196v-163.23h31.355l2.305 13.372c9.528-10.451 22.132-15.677 37.809-15.677 10.605 0 20.058 2.499 28.357 7.492 8.3 4.997 14.755 11.989 19.366 20.98s6.916 19.25 6.916 30.778c0 11.527-2.305 21.786-6.916 30.777s-11.066 15.987-19.366 20.98zm-17.291-72.622c-5.072-5.302-11.606-7.954-19.596-7.954-7.993 0-14.488 2.691-19.481 8.069-4.996 5.382-7.493 12.299-7.493 20.75 0 8.454 2.497 15.37 7.493 20.749 4.993 5.381 11.488 8.069 19.481 8.069 7.99 0 14.524-2.652 19.596-7.954 5.072-5.303 7.608-12.255 7.608-20.864 0-8.606-2.536-15.562-7.608-20.865zm587.66 77.809h-36.196v-113.89h36.196v113.89zm200.34 0h-36.195v-113.89h36.195v113.89zm561.38 0h-36.196v-113.89h36.196v113.89z" />
</svg>
